<svg class="border shadow-md dark:border-slate-700" viewBox="0 0 463.815 824.5600000000001" xmlns="http://www.w3.org/2000/svg" preserveAspectRatio="none" style="width: 463.815px; height: 824.56px;"><rect class="bg" id="bg" x="0" y="0" width="463.815" height="824.5600000000001" fill="#333333"/><path opacity="0.9" stroke-linecap="round" d="M 30 813 S 221.14000000000001 200.35999999999999 442.28000000000003 400.71999999999997 15 406.5 30 813 221.14000000000001 200.35999999999999 442.28000000000003 400.71999999999997" stroke="#FF6767" stroke-width="14" fill="none"/><path opacity="0.9" stroke-linecap="round" d="M 186 446 S 299.14 16.859999999999985 598.28 33.71999999999997 505.28 -189.28000000000003 1010.56 -378.56000000000006 299.14 16.859999999999985 598.28 33.71999999999997" stroke="#C6A0F8" stroke-width="14" fill="none"/><path opacity="0.9" stroke-linecap="round" d="M 106 443 S 259.14 15.359999999999985 518.28 30.71999999999997 52.99999999999997 221.5 105.99999999999994 443 259.14 15.359999999999985 518.28 30.71999999999997" stroke="#31E22A" stroke-width="14" fill="none"/><path opacity="0.9" stroke-linecap="round" d="M 357 189 S -27.640000000000015 300.64 -55.28000000000003 601.28 -233.78000000000003 506.78 -467.56000000000006 1013.56 -439.9200000000001 712.92 -879.8400000000001 1425.84" stroke="#FF6767" stroke-width="14" fill="none"/><path opacity="0.9" stroke-linecap="round" d="M 258 444 S -77.14000000000001 428.14 -154.28000000000003 856.28 -283.28000000000003 634.28 -566.5600000000001 1268.56 -77.14000000000001 428.14 -154.28000000000003 856.28" stroke="#C6A0F8" stroke-width="14" fill="none"/><path opacity="0.9" stroke-linecap="round" d="M 29 275 S 220.64000000000001 -68.64000000000001 441.28000000000003 -137.28000000000003 14.5 137.5 29 275 220.64000000000001 -68.64000000000001 441.28000000000003 -137.28000000000003" stroke="#31E22A" stroke-width="14" fill="none"/></svg>